<?xml version="1.0" standalone="no"?>
<!DOCTYPE svg PUBLIC "-//W3C//DTD SVG 20010904//EN"
 "http://www.w3.org/TR/2001/REC-SVG-20010904/DTD/svg10.dtd">
<svg version="1.0" xmlns="http://www.w3.org/2000/svg"
 width="980.000000pt" height="980.000000pt" viewBox="0 0 980.000000 980.000000"
 preserveAspectRatio="xMidYMid meet">
<g transform="translate(0.000000,980.000000) scale(0.100000,-0.100000)"
fill="#000" stroke="none">
<path d="M2787 7216 c-57 -21 -103 -61 -128 -113 -24 -48 -24 -50 -24 -405 l0
-358 -146 0 c-81 0 -170 -5 -200 -10 -112 -21 -202 -88 -256 -192 l-28 -53 -3
-1342 -2 -1343 -146 0 c-162 0 -193 -8 -214 -59 -9 -22 -11 -93 -8 -263 3
-232 3 -233 32 -296 42 -90 125 -165 214 -192 67 -20 76 -20 3047 -18 l2980 3
55 27 c75 37 137 100 174 178 l31 65 3 232 c4 253 -2 288 -54 312 -15 6 -83
11 -169 11 l-145 0 0 1323 c0 829 -4 1335 -10 1357 -17 61 -73 143 -125 182
-81 61 -118 70 -317 75 l-177 5 -3 357 c-3 350 -3 357 -27 404 -25 52 -71 92
-128 113 -56 20 -4170 20 -4226 0z m93 -190 c0 -2 -9 -6 -20 -9 -11 -3 -18 -1
-14 4 5 9 34 13 34 5z m4087 -288 c-3 -8 -6 -5 -6 6 -1 11 2 17 5 13 3 -3 4
-12 1 -19z m-2 -1453 l0 -1240 -2065 0 -2065 0 -3 1230 c-1 677 0 1236 3 1243
3 10 422 12 2067 10 l2063 -3 0 -1240z m-4330 -208 l0 -1062 22 -40 c27 -51
68 -90 115 -109 33 -14 261 -16 2128 -16 1867 0 2095 2 2128 16 47 19 88 58
115 109 l22 40 3 1063 3 1062 162 0 c186 0 216 -9 254 -76 l23 -39 0 -1312 0
-1313 -2710 0 -2710 0 0 1312 0 1311 25 42 c39 67 64 75 255 75 l165 0 0
-1063z"/>
<path d="M3854 6200 c-57 -23 -54 21 -54 -918 l0 -864 29 -29 c42 -42 99 -41
135 2 l26 31 0 859 c0 571 -3 867 -10 880 -12 22 -61 49 -87 48 -10 0 -28 -4
-39 -9z"/>
<path d="M3120 6008 c-14 -7 -33 -30 -43 -50 -16 -33 -17 -40 -3 -73 25 -59
58 -67 267 -63 l179 3 27 28 c38 38 38 96 0 135 l-27 27 -188 3 c-136 2 -194
-1 -212 -10z"/>
<path d="M5265 6011 c-11 -5 -29 -19 -40 -31 -19 -22 -20 -38 -23 -631 l-2
-609 -95 0 -95 0 0 410 c0 432 -2 457 -45 474 -9 3 -119 6 -245 6 -209 0 -230
-2 -251 -19 l-24 -19 -5 -424 -5 -423 -67 -5 c-55 -4 -72 -10 -93 -31 -44 -44
-32 -123 22 -148 17 -8 360 -11 1202 -11 l1178 0 26 25 c29 30 36 58 25 102
-11 42 -38 56 -118 63 l-65 5 -5 360 c-3 198 -7 361 -8 363 -1 1 -17 11 -34
22 -30 18 -51 20 -241 20 -220 0 -253 -6 -277 -49 -6 -13 -10 -149 -10 -370
l0 -351 -95 0 -95 0 -2 611 -3 611 -33 29 -32 29 -213 -1 c-116 0 -221 -4
-232 -8z m323 -728 l-3 -538 -95 0 -95 0 -3 538 -2 537 100 0 100 0 -2 -537z
m-768 -193 l0 -350 -95 0 -95 0 0 350 0 350 95 0 95 0 0 -350z m1530 -60 l0
-290 -95 0 -95 0 0 285 0 284 93 4 c50 1 93 4 95 5 1 1 2 -128 2 -288z"/>
<path d="M3096 5565 c-41 -38 -39 -97 5 -137 l29 -28 191 0 c156 0 194 3 214
16 33 22 48 71 34 111 -20 59 -37 63 -252 63 -192 0 -194 0 -221 -25z"/>
<path d="M3120 5158 c-14 -7 -33 -30 -43 -50 -16 -33 -17 -40 -3 -72 24 -59
52 -66 248 -66 155 0 176 2 206 20 58 36 65 104 16 151 -25 23 -31 24 -212 27
-136 2 -194 -1 -212 -10z"/>
<path d="M3114 4728 c-53 -25 -63 -103 -19 -148 l29 -30 196 0 c214 0 226 3
250 59 9 23 9 38 0 65 -20 62 -36 66 -247 65 -108 0 -197 -5 -209 -11z"/>
</g>
</svg>
